<svg width="411" height="78" viewBox="0 0 411 78" fill="none" xmlns="http://www.w3.org/2000/svg">
<path d="M214.866 77.8545L224.582 74.6811C276.777 62.8661 342.011 59.9123 390.845 41.1618C394.092 39.9145 404.151 35.8929 404.62 33.2485C400.713 24.7664 385.125 21.184 374.762 18.9187C304.086 3.41144 200.152 5.47709 127.168 12.2229C116.171 13.2407 105.173 14.6777 94.2778 16.2244C91.3097 17.7312 98.565 21.1441 100.277 21.9823C104.768 24.1777 117.287 28.1193 122.31 27.8798C125.722 27.7102 130.605 22.2816 134.816 20.4854C147.589 15.0569 152.815 21.5033 164.966 21.0942C173.325 20.8147 178.12 17.1724 185.413 15.1168C185.185 19.5474 177.79 20.5054 175.482 22.611C171.334 26.393 180.365 39.2359 180.682 44.2453C186.745 41.1718 190.69 37.4097 198.516 36.9308C203.463 36.6314 202.004 41.9901 198.693 43.1177C197.831 43.4071 179.084 44.6445 185.045 48.0373C191.007 51.4302 210.54 48.6061 212.722 42.1996C213.597 39.6051 213.268 37.7391 210.604 36.0227C204.947 32.3804 184.183 37.8388 180.593 34.2364C175.786 29.4266 186.009 22.5311 191.083 20.685C195.561 19.0485 210.655 16.1546 208.054 22.8205C205.911 28.3189 194.597 22.2517 188.914 24.966C186.961 25.894 186.441 28.0195 188.229 28.9775C191.933 30.9833 209.412 27.3909 214.853 29.3068C213.204 23.5789 213.382 20.3058 221.423 18.8988C225.977 22.5611 227.36 44.6744 229.985 46.1812C231.736 47.1891 236.847 45.4328 238.166 44.2952C244.889 38.4975 226.231 22.6509 240.031 18.0705C240.97 17.9608 241.388 18.34 241.908 18.8688C245.815 22.7507 246.957 37.1403 250.14 42.2595C251.738 44.8042 256.406 43.3173 256.558 40.9423C256.787 37.4397 249.075 23.3095 250.419 21.1141C251.333 19.6073 254.085 19.288 255.962 19.737C260.706 20.8547 262.799 35.9927 265.831 37.6093C268.24 38.8866 279.022 35.6734 280.836 33.7774C284.743 29.6661 275.42 18.5795 276.701 14.9172C277.145 13.6698 282.142 11.3048 283.563 11.5044C287.102 12.0133 289.499 27.6004 291.529 30.6241C292.556 32.1608 295.004 32.5101 295.448 33.5579C296.108 35.1046 294.674 36.811 294.839 38.4575C295.511 45.0836 306.94 56.9186 294.065 58.4254C292.505 58.4753 292.163 57.5972 291.541 56.739C289.283 53.6455 286.252 38.2081 282.612 37.6692C280.747 37.3898 269.319 41.0221 267.517 42.7285C265.995 45.2931 280.468 57.198 267.162 58.0961C261.036 58.5053 260.351 45.7522 256.977 45.0935C253.387 45.0037 253.781 47.2889 252.309 48.6959C244.369 56.3199 244.838 46.8099 241.921 46.6303C236.479 49.2647 231.419 52.8372 224.937 53.8251C220.878 53.2064 220.269 42.7684 218.176 42.7784C209.272 50.1828 197.273 57.3477 183.473 55.1324C180.378 54.6334 175.723 52.7274 174.251 50.4423C171.575 46.301 167.884 27.9497 165.106 26.2732C161.009 24.3074 150.773 27.6902 147.145 26.9817C144.824 26.5327 144.837 22.7107 139.357 22.5511C126.99 22.1918 124.77 36.9407 139.357 36.0626C141.729 35.9229 144.456 35.0048 146.739 34.3662C149.923 33.488 154.299 30.1151 156.912 32.6797C156.811 35.8231 136.275 42.0699 133.637 44.2254C131.163 46.2511 131.95 48.0573 135.552 48.0473C143.594 48.0174 153.589 39.6051 159.322 38.2879C161.11 37.8788 161.085 39.0663 160.578 40.0342C158.117 44.8042 136.199 53.416 129.59 53.8152C123.857 54.1644 121.346 50.3425 116.551 50.1828C110.691 49.9932 90.6248 55.1723 88.1768 54.6733L86.6673 52.8572C95.6096 45.1933 110.209 44.1755 117.058 34.1766L99.009 28.5684C98.9202 32.0211 104.73 33.2485 104.78 36.3819C104.818 39.0263 102.573 41.571 98.9963 40.154C97.8294 39.6949 85.5385 23.9681 85.2087 22.6409C84.6633 20.4056 89.4198 19.1882 88.5573 16.6136C71.9411 19.4875 55.0458 21.7727 38.696 25.5647C31.8085 27.1614 6.28808 33.019 5.15919 38.8168C4.03031 44.6146 21.4963 52.0888 27.534 53.7952C73.552 66.8377 171.27 64.9018 220.992 61.4291C230.163 60.7904 239.359 59.4333 248.479 58.4354L250.914 59.9323C241.109 61.2395 231.469 63.6045 221.677 64.9517C200.951 67.8056 179.338 68.5241 158.383 68.9333C137.594 69.3424 111.706 67.157 91.8298 68.8534C89.8384 69.0231 88.088 70.4401 87.2635 70.3204C86.3502 70.1906 85.5258 68.6638 84.0925 68.3046C78.3592 66.8377 68.5544 67.2768 62.5802 66.5583C52.6739 65.3808 19.2386 60.2216 12.2242 56.1303C10.6134 55.1922 10.8544 53.7054 9.75084 52.8272C8.8249 52.0988 7.02376 52.1387 6.21197 51.52C5.2353 50.7716 0.795854 44.1655 0.50412 42.9381C-0.561346 38.4775 -0.117403 34.3163 3.58636 30.7737C4.36009 30.0353 12.0594 24.6666 12.6428 24.4571C14.5708 23.7785 17.0062 24.1777 19.099 23.559C51.3294 14.1388 87.6313 9.10943 122.272 6.1357C187.557 0.537505 254.884 -2.86532 320.613 3.25178C341.542 5.19768 386.609 10.726 402.781 20.7648C411.508 26.1834 413.727 36.5516 405.686 43.1177C398.38 49.0751 379.67 53.1466 369.916 56.0604C366.682 57.0284 362.775 59.8524 360.124 60.3713C351.169 62.1276 341.2 62.9858 331.839 64.9517C314.88 68.5042 300.116 69.9112 282.84 71.9669C273.086 73.1244 257.091 76.4374 248.2 76.7368C245.955 76.8166 243.887 75.3497 242.099 75.7289C240.868 75.9884 240.082 77.5351 238.94 77.7247C237.418 77.9842 235.173 76.3476 233.346 76.4175C232.015 76.4774 230.797 77.7447 228.679 77.9044C224.315 78.2337 219.318 77.585 214.866 77.8545ZM131.315 41.2616C126.318 41.3215 123.984 38.0085 121.346 35.2942C118.758 39.4055 110.843 40.8924 110.437 45.7322C117.579 45.5027 127.244 47.0893 131.315 41.2616Z" fill="white"/>
</svg>
